<?xml version="1.0" standalone="no"?>
<!DOCTYPE svg PUBLIC "-//W3C//DTD SVG 20010904//EN"
 "http://www.w3.org/TR/2001/REC-SVG-20010904/DTD/svg10.dtd">
<svg version="1.0" xmlns="http://www.w3.org/2000/svg"
 width="460.000000pt" height="460.000000pt" viewBox="0 0 460.000000 460.000000"
 preserveAspectRatio="xMidYMid meet">
<metadata>
Created by potrace 1.14, written by Peter Selinger 2001-2017
</metadata>
<g transform="translate(0.000000,460.000000) scale(0.100000,-0.100000)"
fill="#000000" stroke="none">
<path d="M865 4175 c-45 -23 -78 -77 -83 -140 -6 -68 41 -253 105 -413 25 -64
56 -152 69 -196 37 -124 92 -414 108 -576 8 -80 22 -215 30 -300 9 -85 20
-199 26 -253 21 -209 83 -456 171 -687 46 -121 76 -242 99 -399 26 -179 26
-181 -11 -211 l-30 -26 20 -279 c11 -154 23 -354 26 -445 3 -91 8 -184 11
-208 l5 -42 1015 0 c558 0 1014 2 1014 4 0 10 -73 513 -95 656 -24 157 -63
431 -111 775 -15 105 -31 196 -36 203 -6 6 -19 12 -29 12 -11 0 -19 6 -19 13
1 23 18 131 58 357 22 124 48 275 57 335 33 220 94 393 170 482 31 36 111 93
258 183 180 111 59 318 -173 296 -132 -12 -347 -97 -484 -191 -37 -25 -72 -45
-79 -45 -25 0 -107 62 -151 113 -70 83 -122 170 -221 372 -112 229 -142 261
-256 284 -106 22 -220 -25 -276 -114 -24 -37 -52 -63 -57 -53 -1 2 -18 23 -38
48 -47 60 -123 100 -199 107 -52 5 -66 2 -123 -26 -45 -22 -80 -49 -115 -90
-28 -32 -71 -69 -96 -82 -54 -28 -38 -44 -132 131 -102 192 -111 209 -147 264
-87 136 -189 187 -281 141z m2861 -1011 c-3 -9 -6 -20 -6 -25 0 -5 -7 -9 -17
-9 -15 0 -15 1 0 18 10 10 14 22 10 25 -3 4 -1 7 6 7 8 0 11 -6 7 -16z m-759
-1699 c0 -8 -4 -12 -9 -9 -4 3 -8 -3 -8 -13 -1 -29 -35 -67 -54 -60 -10 4 -15
3 -11 -3 9 -15 26 -12 48 8 11 9 17 11 13 5 -4 -7 -3 -21 2 -30 10 -18 -9 -49
-22 -36 -3 4 -6 1 -6 -6 0 -7 10 -10 26 -7 25 5 26 4 9 -14 -9 -10 -24 -16
-33 -14 -13 4 -13 2 2 -10 11 -9 24 -16 29 -16 4 0 5 -5 1 -11 -3 -6 0 -15 7
-20 9 -6 10 -9 2 -9 -8 0 -11 -15 -9 -44 2 -33 -1 -43 -11 -39 -7 3 -10 10 -6
17 4 6 -1 4 -12 -4 -16 -13 -16 -15 -2 -18 10 -2 17 -8 17 -13 0 -6 -6 -7 -12
-3 -10 6 -10 4 0 -7 14 -15 15 -29 3 -48 -8 -12 -12 -12 -25 -2 -11 9 -16 10
-16 2 0 -6 -4 -11 -8 -11 -5 0 -9 7 -9 15 0 8 3 12 7 10 4 -2 15 1 24 8 17 12
17 14 0 28 -10 7 -15 9 -11 3 4 -7 1 -14 -7 -17 -26 -10 -24 5 4 35 16 16 26
36 23 44 -8 21 -25 17 -18 -5 4 -15 -1 -21 -26 -30 -39 -13 -39 -13 -39 -1 0
6 9 10 19 10 22 0 37 30 21 40 -8 5 -6 9 5 14 9 3 13 11 10 17 -5 7 -14 4 -28
-8 -12 -10 -17 -11 -10 -3 6 8 13 20 15 25 1 6 7 9 11 7 4 -1 14 4 22 12 13
12 12 15 -1 20 -10 4 -13 2 -8 -6 5 -8 2 -9 -9 -5 -10 4 -22 -1 -29 -11 -21
-28 -33 -23 -33 14 0 19 3 34 8 34 4 0 7 -4 7 -8 0 -4 8 -8 19 -9 12 -1 18 5
17 15 0 10 5 16 14 14 8 -2 12 0 7 4 -15 15 -50 15 -44 0 4 -11 1 -11 -19 -2
-18 8 -20 12 -7 15 13 2 13 5 2 12 -10 6 -10 9 -1 9 6 0 12 5 12 11 0 5 -5 7
-11 4 -7 -5 -9 6 -7 31 2 22 8 39 13 40 6 0 24 6 40 13 17 7 39 17 50 21 31
13 52 11 52 -5z m-187 -85 c0 -5 -2 -10 -4 -10 -3 0 -8 5 -11 10 -3 6 -1 10 4
10 6 0 11 -4 11 -10z m207 -275 c4 -4 3 -5 -4 -1 -6 3 -14 2 -18 -4 -4 -6 -11
-8 -16 -4 -5 3 -7 9 -4 14 6 10 31 7 42 -5z m-129 -23 c2 -7 -1 -12 -8 -12 -6
0 -9 4 -6 9 4 5 1 12 -4 14 -6 3 -5 4 2 3 6 -1 14 -8 16 -14z m118 -50 c-17
-16 -18 -16 -5 5 7 12 15 20 18 17 3 -2 -3 -12 -13 -22z m-96 -4 c0 -6 -6 -5
-15 2 -8 7 -15 14 -15 16 0 2 7 1 15 -2 8 -4 15 -11 15 -16z m73 -26 c9 -9 13
-22 9 -27 -10 -14 -35 -18 -27 -5 4 6 1 11 -6 9 -8 -1 -23 -1 -34 0 -17 1 -18
3 -5 11 12 8 12 10 1 10 -8 0 -11 3 -7 7 4 5 13 1 19 -7 7 -8 23 -16 36 -18
20 -2 22 0 11 13 -7 8 -16 13 -20 10 -5 -3 -11 -1 -15 5 -11 17 21 11 38 -8z
m2 -73 c-5 -6 -55 0 -55 7 0 3 13 3 29 2 16 -1 28 -5 26 -9z m-45 -13 c0 -2
-7 -7 -16 -10 -8 -3 -12 -2 -9 4 6 10 25 14 25 6z m53 -72 c-7 -20 -20 -17
-26 5 -3 14 0 17 14 14 10 -3 15 -11 12 -19z m38 -71 c-5 -10 -9 -22 -9 -26 0
-5 -4 -12 -8 -15 -4 -4 -3 -1 1 7 6 11 4 13 -11 8 -18 -7 -18 -7 0 8 11 8 16
15 10 15 -5 0 -2 5 6 10 21 13 22 13 11 -7z m-41 -9 c0 -2 -9 -4 -21 -4 -11 0
-18 4 -14 10 5 8 35 3 35 -6z m-26 -43 c4 -5 -3 -7 -14 -4 -23 6 -26 13 -6 13
8 0 17 -4 20 -9z m6 -31 c-20 -13 -33 -13 -25 0 3 6 14 10 23 10 15 0 15 -2 2
-10z m77 -22 c-3 -7 -5 -2 -5 12 0 14 2 19 5 13 2 -7 2 -19 0 -25z"/>
<path d="M2924 1236 c3 -13 1 -26 -4 -28 -6 -2 -2 -8 8 -14 16 -10 17 -7 14
27 -2 22 -9 39 -14 39 -6 0 -7 -11 -4 -24z"/>
</g>
</svg>
